<?xml version="1.0" encoding="UTF-8"?>
<!DOCTYPE svg PUBLIC "-//W3C//DTD SVG 1.1//EN" "http://www.w3.org/Graphics/SVG/1.1/DTD/svg11.dtd">
<!-- Creator: CorelDRAW 2019 (64-Bit) -->
<svg xmlns="http://www.w3.org/2000/svg" xml:space="preserve" width="1305px" height="1305px" version="1.1" style="shape-rendering:geometricPrecision; text-rendering:geometricPrecision; image-rendering:optimizeQuality; fill-rule:evenodd; clip-rule:evenodd"
viewBox="0 0 286.12 286.12"
 xmlns:xlink="http://www.w3.org/1999/xlink"
 xmlns:xodm="http://www.corel.com/coreldraw/odm/2003">
 <defs>
  <style type="text/css">
   <![CDATA[
    .fil0 {fill:white}
    .fil1 {fill:#F0145A}
   ]]>
  </style>
 </defs>
 <g id="Слой_x0020_1">
  <metadata id="CorelCorpID_0Corel-Layer"/>
  <path class="fil0" d="M171.96 148.82l14.23 0.01c4.28,-13.17 8.57,-26.34 12.86,-39.5 1.16,-3.55 1.26,-7.8 -1.03,-10.94 -2.42,-3.32 -6.53,-4.37 -10.46,-4.37l-38.56 0c-5.32,0 -10.05,3.4 -11.7,8.46l-52.17 159.95 -36.03 0c18.73,-57.43 37.46,-114.87 56.19,-172.3 5.71,-17.49 22.06,-29.28 40.45,-29.28l44.94 0c14.29,0 27.57,5.82 36.07,17.46 8.37,11.47 10.04,25.79 5.66,39.2 -3.84,11.78 -7.68,23.56 -11.52,35.33 -5.44,16.69 -20.53,28.26 -38.05,29.2l-0.14 0.01 -57.97 0 25.75 -78.01 36.14 0.21 -14.66 44.57z"/>
  <path class="fil1" d="M81.37 257.25l51 -156.38c2.35,-7.17 9.06,-12.03 16.63,-12.03l38.56 0c6.64,0 11.66,2.41 14.64,6.5 2.98,4.08 3.68,9.78 1.78,15.59 -6.4,19.62 -10.89,33.4 -14.03,43.08l-25.14 -0.02 14.66 -44.6 -25.25 -0.15 -22.32 67.63 50.66 0c15.34,-0.82 28.61,-10.94 33.4,-25.63 3.55,-10.88 7.43,-22.75 11.53,-35.33 4.1,-12.58 2.1,-24.91 -4.92,-34.54 -7.03,-9.64 -18.34,-15.34 -31.89,-15.34l-44.94 0c-16.18,0 -30.52,10.38 -35.52,25.71 -4.96,15.19 -29.3,89.81 -53.98,165.51l25.13 0z"/>
  <path class="fil1" d="M9.62 143.06c0,-73.7 59.74,-133.44 133.44,-133.44 73.69,0 133.44,59.74 133.44,133.44 0,73.69 -59.75,133.44 -133.44,133.44 -21.46,0 -41.74,-5.07 -59.71,-14.07l-19.16 0c22.61,14.97 49.72,23.69 78.87,23.69 79.01,0 143.06,-64.05 143.06,-143.06 0,-79.01 -64.05,-143.06 -143.06,-143.06 -79.01,0 -143.06,64.05 -143.06,143.06 0,44.43 20.25,84.13 52.03,110.37 1.08,-3.3 2.15,-6.59 3.23,-9.89 -27.97,-24.46 -45.64,-60.41 -45.64,-100.48z"/>
  <path class="fil0" d="M19.21 143.06c0,-68.4 55.45,-123.85 123.85,-123.85 68.4,0 123.84,55.45 123.84,123.85 0,68.4 -55.44,123.84 -123.84,123.84 -19.82,0 -38.56,-4.65 -55.17,-12.93l-2.76 8.46 -1.78 0c17.97,9 38.25,14.07 59.71,14.07 73.69,0 133.44,-59.75 133.44,-133.44 0,-73.7 -59.75,-133.44 -133.44,-133.44 -73.7,0 -133.44,59.74 -133.44,133.44 0,40.07 17.67,76.02 45.64,100.48 1.08,-3.33 2.17,-6.65 3.25,-9.98 -24.18,-22.61 -39.3,-54.79 -39.3,-90.5z"/>
 </g>
</svg>
